# xmcd
#
# Track frame offsets:
#	150
#	12719
#	25457
#	38772
#	49941
#	63551
#	75957
#	86951
#	95542
#	107169
#	116415
#	125218
#	137499
#	149014
#	163177
#	173982
#	183811
#	195077
#	204370
#	218252
#	229604
#	243103
#	254664
#	266286
#	277014
#
# Disc length: 3859 seconds
#
# Revision: 1
# Processed by: cddbd v1.5.2PL0 Copyright (c) Steve Scherf et al.
# Submitted via: audiograbber 1.83.01
#
DISCID=630f1119
DTITLE=Various Artist - Country Faithfuls
DYEAR=1959
DGENRE=Country
TTITLE0=Ray Price - Invitation To The Blues
TTITLE1=The Browns - The Three Bells
TTITLE2=Ray Price - Heartaches By The Number
TTITLE3=Stonewall Jackson - Waterloo
TTITLE4=Johnny Cash - Don't Take Your Guns To Town
TTITLE5=George Jones - White Lightening
TTITLE6=Faron Young - Country Girl
TTITLE7=Webb Pierce - I Aint Never
TTITLE8=Johnny Horton - When It's Spring Time In Alaska
TTITLE9=Jim Reeves - Billy Bayou
TTITLE10=Jim Reeves - Home
TTITLE11=Wilma Lee - Big Midnight Special
TTITLE12=George Morgan - I'm In Love Again
TTITLE13=Simon Crum - Country Music Is Here To Stay
TTITLE14=Wilma Lee - Come Walk With Me
TTITLE15=Don Gibson - Who Cares
TTITLE16=Stonewall Jackson - Life To Go
TTITLE17=Johnny Cash - I Got Stripes
TTITLE18=Eddy Arnold - Tennessee Stud
TTITLE19=Frankie Miller - Blackland Farmer
TTITLE20=Ray Price - City Lights
TTITLE21=Hank Thompson - I've Run Out Of Tomorrows
TTITLE22=The Wilburn Brothers - Which One Is To Blame
TTITLE23=Charlie Walker - Pick Me Up On Your Way Down
TTITLE24=Ray Price - That's What It's Like To Be Lonesome
EXTD=
EXTT0=
EXTT1=
EXTT2=
EXTT3=
EXTT4=
EXTT5=
EXTT6=
EXTT7=
EXTT8=
EXTT9=
EXTT10=
EXTT11=
EXTT12=
EXTT13=
EXTT14=
EXTT15=
EXTT16=
EXTT17=
EXTT18=
EXTT19=
EXTT20=
EXTT21=
EXTT22=
EXTT23=
EXTT24=
PLAYORDER=
